<?xml version="1.0" standalone="no"?>
<!DOCTYPE svg PUBLIC "-//W3C//DTD SVG 20010904//EN"
 "http://www.w3.org/TR/2001/REC-SVG-20010904/DTD/svg10.dtd">
<svg version="1.0" xmlns="http://www.w3.org/2000/svg"
 width="2000.000000pt" height="2000.000000pt" viewBox="0 0 2000.000000 2000.000000"
 preserveAspectRatio="xMidYMid meet">
<metadata>
Created by potrace 1.11, written by Peter Selinger 2001-2013
</metadata>
<g transform="translate(0.000000,2000.000000) scale(0.100000,-0.100000)"
fill="#000000" stroke="none">
<path d="M9799 16086 c-2 -2 -33 -7 -69 -11 -36 -4 -67 -8 -70 -10 -3 -2 -24
-6 -48 -10 -140 -21 -408 -114 -546 -190 -111 -61 -136 -75 -196 -115 -203
-136 -442 -375 -566 -570 -16 -25 -33 -52 -39 -61 -5 -9 -39 -71 -73 -139 -72
-140 -128 -288 -166 -440 -48 -196 -54 -288 -55 -909 -1 -316 -4 -577 -6 -579
-3 -3 -50 -6 -104 -7 -55 -2 -139 -6 -188 -10 -48 -5 -99 -9 -113 -10 -22 -2
-124 -14 -170 -20 -24 -3 -113 -17 -135 -21 -11 -2 -36 -7 -55 -10 -83 -14
-395 -96 -507 -133 -233 -78 -564 -226 -735 -330 -37 -23 -70 -41 -72 -41 -3
0 -22 -11 -43 -25 -51 -34 -60 -40 -118 -78 -27 -18 -70 -48 -95 -65 -25 -18
-56 -40 -70 -50 -14 -9 -30 -21 -36 -27 -6 -5 -23 -19 -38 -30 -156 -113 -421
-362 -569 -535 -45 -52 -84 -97 -88 -100 -21 -18 -228 -303 -280 -385 -184
-293 -324 -583 -423 -877 -44 -129 -100 -329 -121 -428 -1 -3 -7 -30 -13 -60
-6 -30 -14 -68 -17 -85 -3 -16 -7 -41 -10 -55 -10 -50 -36 -251 -40 -307 -2
-32 -7 -92 -10 -133 -8 -91 -8 -3875 0 -3910 3 -14 7 -46 10 -72 10 -98 54
-252 109 -386 76 -182 196 -363 335 -503 243 -244 499 -379 822 -433 19 -3 45
-8 58 -11 32 -6 285 -7 336 0 77 9 127 17 146 21 91 20 114 27 209 61 315 115
570 313 753 586 68 101 150 260 163 314 4 15 10 33 15 38 4 6 10 23 13 38 2
15 7 30 10 35 3 5 7 19 10 33 3 13 12 56 20 94 9 39 18 111 22 160 3 50 7 851
8 1780 2 930 6 1706 10 1725 7 30 14 63 30 131 13 53 61 148 124 244 77 117
248 244 387 287 94 30 307 32 405 4 236 -66 434 -244 517 -466 49 -130 47 -42
49 -1860 1 -1557 4 -1798 19 -1885 16 -90 38 -191 43 -200 4 -5 8 -19 9 -29
15 -97 128 -329 238 -490 111 -163 363 -380 551 -474 139 -69 352 -133 494
-147 81 -8 250 -8 332 1 274 27 576 152 797 331 113 91 285 288 342 393 8 14
16 27 19 30 3 3 20 37 38 75 18 39 38 78 43 89 11 19 38 90 44 116 2 8 13 47
25 85 22 75 35 150 46 255 4 36 8 832 9 1770 1 938 5 1721 9 1740 57 289 206
499 441 622 92 48 159 62 295 62 124 1 147 -1 227 -23 226 -62 446 -272 509
-488 43 -146 42 -106 42 -1900 0 -947 3 -1730 6 -1740 2 -10 8 -43 11 -73 3
-30 10 -71 15 -90 5 -19 11 -46 14 -60 19 -100 74 -244 139 -370 22 -41 44
-85 51 -97 6 -13 14 -23 19 -23 4 0 7 -4 7 -10 0 -40 201 -269 320 -364 97
-77 244 -176 270 -182 3 0 36 -15 75 -33 73 -34 238 -86 302 -96 21 -3 48 -7
58 -9 56 -11 160 -18 244 -18 99 1 154 6 281 27 105 17 318 90 373 128 15 10
27 16 27 13 0 -4 18 5 40 19 22 14 42 25 44 25 24 0 264 189 326 257 67 73
118 132 122 140 1 5 25 42 52 83 124 186 207 412 241 656 7 46 7 3869 1 3964
-7 101 -17 212 -21 240 -2 14 -6 50 -10 80 -29 255 -149 705 -262 979 -78 189
-248 519 -327 631 -17 25 -37 56 -44 70 -22 42 -217 299 -317 415 -131 154
-427 441 -519 504 -12 8 -23 18 -26 21 -11 14 -240 180 -310 225 -213 138
-516 295 -730 378 -121 47 -340 123 -381 131 -13 3 -87 20 -164 39 -277 68
-563 106 -835 111 l-105 3 -1 519 c-1 469 -6 661 -19 749 -3 17 -7 47 -10 67
-38 278 -208 683 -375 892 -230 288 -430 456 -717 600 -207 105 -407 168 -638
202 -40 6 -471 15 -476 10z"/>
</g>
</svg>
