<?xml version="1.0" standalone="no"?>
<!DOCTYPE svg PUBLIC "-//W3C//DTD SVG 20010904//EN"
 "http://www.w3.org/TR/2001/REC-SVG-20010904/DTD/svg10.dtd">
<svg version="1.0" xmlns="http://www.w3.org/2000/svg"
 width="2000.000000pt" height="499.000000pt" viewBox="0 0 2000.000000 499.000000"
 preserveAspectRatio="xMidYMid meet">
<metadata>
Created by potrace 1.16, written by Peter Selinger 2001-2019
</metadata>
<g transform="translate(0.000000,499.000000) scale(0.100000,-0.100000)"
fill="#000000" stroke="none">
<path d="M2712 3827 l-333 -162 -164 -217 -165 -216 276 -269 c151 -147 279
-269 283 -271 4 -1 93 111 197 250 l190 253 68 378 c65 362 67 379 50 398 -9
10 -29 19 -43 18 -14 0 -176 -73 -359 -162z m277 -3 c52 -40 59 -50 55 -73 -3
-14 -19 -104 -37 -199 -18 -95 -35 -174 -39 -175 -4 -1 -100 67 -214 152
l-206 155 183 92 c101 51 187 93 191 93 5 1 35 -20 67 -45z"/>
<path d="M1479 3719 l-46 -38 -28 29 -29 30 -63 -62 -63 -62 27 -28 27 -28
-44 -45 c-41 -42 -43 -46 -28 -61 15 -16 20 -14 64 25 34 30 50 38 58 31 8 -8
-3 -24 -37 -57 -46 -43 -47 -46 -31 -64 17 -19 19 -19 64 26 39 39 49 44 59
32 9 -12 3 -22 -36 -55 -48 -40 -48 -40 -29 -61 l20 -22 46 46 c33 33 49 42
57 34 8 -8 -1 -22 -33 -51 -49 -45 -49 -47 -31 -71 11 -15 17 -13 60 24 65 56
83 38 22 -21 -42 -41 -44 -45 -28 -62 15 -17 18 -16 59 22 24 22 48 40 53 40
26 0 17 -21 -25 -60 -44 -40 -45 -42 -28 -61 17 -19 19 -19 64 26 41 40 48 44
54 29 5 -14 -5 -29 -39 -59 l-47 -40 21 -19 c21 -20 22 -19 66 24 l45 44 34
-34 c98 -100 776 -833 776 -839 0 -4 -52 -55 -115 -114 -96 -91 -113 -111
-105 -126 14 -28 565 -616 603 -645 18 -14 60 -38 92 -53 54 -25 71 -28 166
-28 101 0 108 1 180 37 93 46 158 113 202 205 61 132 44 309 -40 420 -49 64
-582 633 -599 640 -8 3 -61 -39 -126 -101 -62 -58 -116 -107 -119 -108 -3 -2
-189 193 -412 432 l-406 435 45 44 c43 42 44 44 28 62 -17 19 -19 19 -61 -23
-34 -33 -45 -40 -55 -30 -10 10 -3 21 32 51 39 34 43 40 31 55 -20 23 -31 20
-73 -21 -25 -25 -41 -34 -48 -27 -7 7 3 23 30 49 42 41 47 54 28 73 -8 8 -23
1 -60 -30 -66 -55 -84 -38 -23 22 42 41 44 45 28 62 -16 18 -18 17 -60 -24
-34 -34 -45 -40 -55 -29 -11 10 -5 20 30 53 42 38 43 41 26 59 -17 19 -19 19
-61 -23 -34 -33 -46 -39 -55 -30 -10 10 -2 21 36 55 l48 42 -21 19 c-22 20
-22 19 -65 -23 -59 -58 -75 -36 -17 23 39 40 41 43 24 58 -17 15 -21 14 -64
-23z"/>
<path d="M7740 3124 c-138 -29 -273 -122 -348 -236 -62 -95 -83 -165 -89 -288
-9 -187 37 -311 162 -435 118 -119 243 -168 425 -168 152 -1 302 45 388 117
l32 28 0 229 0 229 -80 0 -80 0 0 -190 0 -190 -40 -20 c-96 -49 -219 -62 -325
-35 -213 56 -339 241 -313 463 15 133 97 246 226 309 75 38 77 38 196 38 111
0 126 -2 180 -28 33 -15 79 -44 104 -64 l44 -36 56 57 57 57 -49 44 c-129 115
-346 163 -546 119z"/>
<path d="M8912 3120 c-201 -54 -356 -205 -407 -396 -25 -95 -21 -243 9 -339
58 -183 207 -322 397 -371 84 -22 244 -22 327 -1 299 78 475 357 419 662 -23
127 -64 204 -156 296 -116 116 -218 158 -401 165 -93 3 -129 0 -188 -16z m350
-177 c350 -164 299 -680 -77 -778 -296 -77 -576 168 -527 462 27 164 140 296
290 339 29 8 86 12 147 11 89 -2 108 -6 167 -34z"/>
<path d="M10235 3130 c-176 -39 -332 -156 -405 -303 -59 -121 -73 -295 -34
-429 55 -186 211 -334 405 -384 83 -22 244 -22 326 -1 286 74 459 334 422 633
-28 219 -160 381 -378 462 -52 19 -90 25 -181 28 -63 2 -133 -1 -155 -6z m318
-188 c209 -103 292 -357 185 -570 -85 -170 -288 -257 -483 -207 -127 34 -221
112 -278 233 -30 62 -32 75 -31 167 0 79 5 112 22 155 46 114 136 199 255 242
41 14 75 18 157 16 96 -3 112 -6 173 -36z"/>
<path d="M3664 3116 c-3 -7 -4 -40 -2 -72 l3 -59 188 -3 187 -2 0 -490 0 -490
85 0 85 0 0 490 0 490 190 0 190 0 0 75 0 75 -460 0 c-380 0 -462 -2 -466 -14z"/>
<path d="M4720 2565 l0 -565 85 0 85 0 0 250 0 250 305 0 305 0 0 -250 0 -250
85 0 85 0 0 565 0 565 -85 0 -85 0 0 -240 0 -240 -305 0 -305 0 0 240 0 240
-85 0 -85 0 0 -565z"/>
<path d="M5960 2565 l0 -565 410 0 410 0 0 80 0 80 -325 0 -325 0 0 170 0 170
280 0 280 0 0 75 0 75 -280 0 -280 0 0 165 0 165 315 0 315 0 0 75 0 75 -400
0 -400 0 0 -565z"/>
<path d="M11150 2565 l0 -567 298 5 c239 3 309 7 357 21 204 58 350 201 400
392 19 75 19 223 0 299 -49 191 -177 322 -382 392 -39 13 -105 17 -360 20
l-313 5 0 -567z m635 385 c194 -75 289 -235 263 -447 -19 -162 -142 -294 -309
-332 -24 -6 -128 -11 -231 -11 l-188 0 0 411 0 411 203 -4 c182 -4 208 -7 262
-28z"/>
<path d="M12820 2565 l0 -565 273 0 c394 0 503 19 593 102 66 61 88 116 88
218 -1 119 -40 195 -130 251 l-36 22 35 36 c59 62 72 95 72 196 0 69 -4 99
-19 129 -42 83 -132 144 -246 166 -29 5 -183 10 -341 10 l-289 0 0 -565z m644
385 c65 -33 89 -76 83 -149 -3 -48 -9 -59 -44 -91 -54 -51 -104 -60 -328 -60
l-185 0 0 166 0 165 213 -3 c204 -3 215 -4 261 -28z m50 -484 c47 -23 62 -36
77 -70 24 -52 24 -90 -1 -144 -16 -36 -29 -47 -77 -70 -57 -26 -62 -27 -290
-30 l-233 -4 0 177 0 177 233 -4 232 -3 59 -29z"/>
<path d="M13980 2565 l0 -565 410 0 410 0 0 80 0 80 -325 0 -325 0 0 170 0
170 280 0 280 0 0 75 0 75 -280 0 -280 0 0 165 0 165 310 0 310 0 0 75 0 75
-395 0 -395 0 0 -565z"/>
<path d="M15097 2608 c-131 -288 -247 -542 -257 -566 l-19 -43 91 3 92 3 64
143 65 142 280 -2 281 -3 64 -142 64 -143 90 0 c81 0 89 2 84 18 -3 9 -118
262 -255 562 l-249 545 -79 3 -78 2 -238 -522z m422 68 c56 -125 100 -230 98
-232 -2 -3 -97 -3 -209 -2 l-206 3 90 200 c49 110 96 215 104 234 8 19 16 32
18 30 2 -2 49 -107 105 -233z"/>
<path d="M16082 2733 c4 -376 5 -401 25 -455 26 -69 46 -102 92 -152 97 -104
262 -152 437 -126 188 27 308 131 361 313 12 41 17 132 20 435 l5 382 -85 0
-86 0 -3 -377 c-4 -420 -6 -432 -73 -510 -90 -105 -302 -123 -418 -36 -23 17
-50 53 -69 93 l-33 65 -3 382 -3 383 -85 0 -85 0 3 -397z"/>
<path d="M17110 3055 l0 -75 190 0 190 0 0 -490 0 -490 85 0 85 0 0 490 0 489
194 3 194 3 181 -296 181 -296 0 -197 0 -196 85 0 85 0 0 198 1 197 223 365
224 365 -81 3 c-44 2 -86 1 -92 -2 -7 -2 -85 -125 -175 -273 -89 -147 -168
-273 -174 -280 -8 -8 -55 61 -183 270 l-171 282 -521 3 -521 2 0 -75z"/>
<path d="M1425 2399 c-207 -276 -386 -522 -397 -547 -48 -108 -46 -237 4 -336
50 -99 167 -185 279 -206 116 -22 262 26 346 113 22 23 191 243 376 489 l335
447 -64 58 c-35 32 -162 154 -282 270 l-220 213 -377 -501z"/>
</g>
</svg>
