<?xml version="1.0" standalone="no"?>
<!DOCTYPE svg PUBLIC "-//W3C//DTD SVG 20010904//EN"
 "http://www.w3.org/TR/2001/REC-SVG-20010904/DTD/svg10.dtd">
<svg version="1.0" xmlns="http://www.w3.org/2000/svg"
 width="2000.000000pt" height="1601.000000pt" viewBox="0 0 2000.000000 1601.000000"
 preserveAspectRatio="xMidYMid meet">

<g transform="translate(0.000000,1601.000000) scale(0.100000,-0.100000)"
fill="#000000" stroke="none">
<path d="M6311 13469 c-349 -37 -716 -261 -916 -559 -110 -166 -165 -292 -207
-482 -19 -84 -21 -135 -25 -504 l-5 -411 -121 -7 c-390 -22 -741 -118 -1085
-296 -803 -416 -1330 -1203 -1412 -2110 -8 -88 -10 -500 -8 -1390 4 -1139 6
-1271 21 -1325 90 -328 271 -560 542 -695 122 -62 227 -89 366 -97 283 -16
554 89 753 291 121 123 197 252 253 431 l28 90 5 1180 5 1180 26 77 c15 43 41
100 58 127 48 74 142 158 218 194 65 31 73 32 193 32 120 0 128 -1 193 -32
128 -61 228 -168 269 -291 l23 -67 5 -1180 c6 -1166 6 -1181 27 -1255 92 -322
271 -549 538 -681 336 -166 721 -122 1037 118 162 123 294 339 350 571 8 33
13 396 17 1222 l6 1175 27 73 c53 147 138 245 273 315 58 31 64 32 190 32 126
0 132 -1 199 -32 91 -44 160 -104 212 -183 84 -131 78 -26 84 -1355 6 -1178 6
-1180 28 -1260 72 -261 216 -472 414 -606 83 -57 209 -115 303 -140 108 -30
344 -33 452 -6 400 97 688 401 759 801 12 67 14 293 14 1337 0 1282 -2 1354
-40 1579 -137 806 -663 1516 -1402 1891 -339 172 -681 263 -1065 285 l-123 7
0 381 c0 499 -11 571 -129 841 -42 94 -167 267 -263 362 -294 290 -662 416
-1087 372z"/>
<path d="M16220 11436 c-202 -57 -372 -236 -410 -433 -7 -35 -10 -103 -8 -155
8 -157 60 -271 174 -379 102 -96 208 -143 350 -155 360 -28 656 288 606 648
-31 220 -205 415 -422 473 -67 18 -228 18 -290 1z"/>
<path d="M12705 9893 c-548 -18 -1016 -224 -1411 -620 -410 -412 -614 -949
-614 -1613 1 -689 184 -1197 569 -1580 212 -211 434 -348 723 -444 274 -92
505 -121 896 -113 643 12 1062 129 1430 398 l22 16 -191 377 -191 376 -56 -49
c-206 -175 -455 -266 -809 -293 -473 -36 -843 81 -1088 344 -111 118 -175 235
-226 410 -28 97 -54 252 -47 283 3 15 125 16 1505 16 l1502 -1 10 37 c65 244
89 586 56 811 -51 360 -162 637 -359 896 -87 115 -286 310 -396 388 -170 120
-387 221 -605 282 -196 54 -487 86 -720 79z m330 -843 c225 -39 356 -103 501
-245 84 -83 96 -100 153 -215 61 -126 101 -257 116 -382 l7 -58 -1032 0 -1032
0 7 38 c12 68 77 256 112 325 113 225 268 382 458 464 160 69 265 90 457 92
95 1 171 -5 253 -19z"/>
<path d="M15320 9415 l0 -405 270 0 270 0 0 -1710 0 -1710 500 0 500 0 0 2115
0 2115 -770 0 -770 0 0 -405z"/>
</g>
</svg>
